<svg width="24" height="24" viewBox="0 0 24 24" fill="none" xmlns="http://www.w3.org/2000/svg">
<mask id="mask0_906_3629" style="mask-type:alpha" maskUnits="userSpaceOnUse" x="0" y="0" width="24" height="24">
<rect width="24" height="24" fill="#D9D9D9"/>
</mask>
<g mask="url(#mask0_906_3629)">
<path d="M12 14.1499C11.8 14.1499 11.621 14.0749 11.463 13.9249C11.3043 13.7749 11.225 13.5916 11.225 13.3749C11.225 13.1749 11.3043 12.9999 11.463 12.8499C11.621 12.6999 11.8 12.6249 12 12.6249C12.2 12.6249 12.3793 12.6999 12.538 12.8499C12.696 12.9999 12.775 13.1749 12.775 13.3749C12.775 13.5916 12.696 13.7749 12.538 13.9249C12.3793 14.0749 12.2 14.1499 12 14.1499ZM8 14.1499C7.8 14.1499 7.621 14.0749 7.463 13.9249C7.30433 13.7749 7.225 13.5916 7.225 13.3749C7.225 13.1749 7.30433 12.9999 7.463 12.8499C7.621 12.6999 7.8 12.6249 8 12.6249C8.2 12.6249 8.37933 12.6999 8.538 12.8499C8.696 12.9999 8.775 13.1749 8.775 13.3749C8.775 13.5916 8.696 13.7749 8.538 13.9249C8.37933 14.0749 8.2 14.1499 8 14.1499ZM16 14.1499C15.8 14.1499 15.621 14.0749 15.463 13.9249C15.3043 13.7749 15.225 13.5916 15.225 13.3749C15.225 13.1749 15.3043 12.9999 15.463 12.8499C15.621 12.6999 15.8 12.6249 16 12.6249C16.2 12.6249 16.3793 12.6999 16.538 12.8499C16.696 12.9999 16.775 13.1749 16.775 13.3749C16.775 13.5916 16.696 13.7749 16.538 13.9249C16.3793 14.0749 16.2 14.1499 16 14.1499ZM12 17.9999C11.8 17.9999 11.621 17.9249 11.463 17.7749C11.3043 17.6249 11.225 17.4416 11.225 17.2249C11.225 17.0249 11.3043 16.8459 11.463 16.6879C11.621 16.5292 11.8 16.4499 12 16.4499C12.2 16.4499 12.3793 16.5292 12.538 16.6879C12.696 16.8459 12.775 17.0249 12.775 17.2249C12.775 17.4416 12.696 17.6249 12.538 17.7749C12.3793 17.9249 12.2 17.9999 12 17.9999ZM8 17.9999C7.8 17.9999 7.621 17.9249 7.463 17.7749C7.30433 17.6249 7.225 17.4416 7.225 17.2249C7.225 17.0249 7.30433 16.8459 7.463 16.6879C7.621 16.5292 7.8 16.4499 8 16.4499C8.2 16.4499 8.37933 16.5292 8.538 16.6879C8.696 16.8459 8.775 17.0249 8.775 17.2249C8.775 17.4416 8.696 17.6249 8.538 17.7749C8.37933 17.9249 8.2 17.9999 8 17.9999ZM16 17.9999C15.8 17.9999 15.621 17.9249 15.463 17.7749C15.3043 17.6249 15.225 17.4416 15.225 17.2249C15.225 17.0249 15.3043 16.8459 15.463 16.6879C15.621 16.5292 15.8 16.4499 16 16.4499C16.2 16.4499 16.3793 16.5292 16.538 16.6879C16.696 16.8459 16.775 17.0249 16.775 17.2249C16.775 17.4416 16.696 17.6249 16.538 17.7749C16.3793 17.9249 16.2 17.9999 16 17.9999ZM5.625 20.9999C5.15833 20.9999 4.771 20.8459 4.463 20.5379C4.15433 20.2292 4 19.8416 4 19.3749V6.6249C4 6.15824 4.15433 5.7709 4.463 5.4629C4.771 5.15424 5.15833 4.9999 5.625 4.9999H7.375V2.7749H8.45V4.9999H15.625V2.7749H16.625V4.9999H18.375C18.8417 4.9999 19.2293 5.15424 19.538 5.4629C19.846 5.7709 20 6.15824 20 6.6249V19.3749C20 19.8416 19.846 20.2292 19.538 20.5379C19.2293 20.8459 18.8417 20.9999 18.375 20.9999H5.625ZM5.625 19.9999H18.375C18.5417 19.9999 18.6873 19.9372 18.812 19.8119C18.9373 19.6872 19 19.5416 19 19.3749V10.6249H5V19.3749C5 19.5416 5.06267 19.6872 5.188 19.8119C5.31267 19.9372 5.45833 19.9999 5.625 19.9999Z" fill="#F8FBFF"/>
</g>
</svg>
