<svg width="24" height="23" viewBox="0 0 24 23" fill="none" xmlns="http://www.w3.org/2000/svg">
<g id="rate_review">
<mask id="mask0_504_4067" style="mask-type:alpha" maskUnits="userSpaceOnUse" x="0" y="0" width="24" height="23">
<rect id="Bounding box" y="0.624756" width="24" height="22.1472" fill="#D9D9D9"/>
</mask>
<g mask="url(#mask0_504_4067)">
<path id="rate_review_2" d="M11.3 13.0825H17.5V12.1597H12.3L11.3 13.0825ZM6.875 13.0825H8.25L13.925 7.89172C14.0083 7.81482 14.05 7.73023 14.05 7.63795C14.05 7.54567 14.0083 7.46108 13.925 7.38418L13.05 6.57673C12.9667 6.49983 12.875 6.46138 12.775 6.46138C12.675 6.46138 12.5833 6.49983 12.5 6.57673L6.875 11.8136V13.0825ZM3 19.1499V4.89262C3 4.46198 3.15433 4.10424 3.463 3.8194C3.771 3.53518 4.15833 3.39307 4.625 3.39307H19.375C19.8417 3.39307 20.2293 3.53518 20.538 3.8194C20.846 4.10424 21 4.46198 21 4.89262V14.8127C21 15.2434 20.846 15.6011 20.538 15.8859C20.2293 16.1702 19.8417 16.3123 19.375 16.3123H6.075L3 19.1499ZM4 16.9121L5.65 15.3895H19.375C19.5583 15.3895 19.7083 15.3356 19.825 15.228C19.9417 15.1203 20 14.9819 20 14.8127V4.89262C20 4.72344 19.9417 4.58502 19.825 4.47736C19.7083 4.3697 19.5583 4.31587 19.375 4.31587H4.625C4.44167 4.31587 4.29167 4.3697 4.175 4.47736C4.05833 4.58502 4 4.72344 4 4.89262V16.9121ZM4 4.89262V4.31587V16.9121V4.89262Z" fill="#FFCD25"/>
</g>
</g>
</svg>
