<svg width="21" height="20" viewBox="0 0 21 20" fill="none" xmlns="http://www.w3.org/2000/svg">
<g id="insights">
<mask id="mask0_504_4393" style="mask-type:alpha" maskUnits="userSpaceOnUse" x="0" y="0" width="21" height="20">
<rect id="Bounding box" x="0.136719" width="20" height="20" fill="#D9D9D9"/>
</mask>
<g mask="url(#mask0_504_4393)">
<path id="insights_2" d="M2.63671 15.583C2.33138 15.583 2.07438 15.479 1.86571 15.271C1.65771 15.0623 1.55371 14.8053 1.55371 14.5C1.55371 14.1947 1.65771 13.9377 1.86571 13.729C2.07438 13.521 2.33138 13.417 2.63671 13.417C2.73404 13.417 2.82438 13.4273 2.90771 13.448C2.99104 13.4687 3.07438 13.5067 3.15771 13.562L7.69871 9.021C7.64338 8.93767 7.60538 8.85433 7.58471 8.771C7.56404 8.68767 7.55371 8.59733 7.55371 8.5C7.55371 8.19467 7.65771 7.93767 7.86571 7.729C8.07438 7.521 8.33138 7.417 8.63671 7.417C8.94204 7.417 9.19904 7.521 9.40771 7.729C9.61571 7.93767 9.71971 8.19467 9.71971 8.5C9.71971 8.61133 9.68504 8.778 9.61571 9L12.6367 12.021C12.72 11.993 12.8 11.9687 12.8767 11.948C12.9527 11.9273 13.0394 11.917 13.1367 11.917C13.234 11.917 13.3244 11.9273 13.4077 11.948C13.491 11.9687 13.5674 12.0067 13.6367 12.062L16.6987 9C16.6434 8.93067 16.6054 8.85433 16.5847 8.771C16.564 8.68767 16.5537 8.59733 16.5537 8.5C16.5537 8.19467 16.6577 7.93767 16.8657 7.729C17.0744 7.521 17.3314 7.417 17.6367 7.417C17.942 7.417 18.199 7.521 18.4077 7.729C18.6157 7.93767 18.7197 8.19467 18.7197 8.5C18.7197 8.80533 18.6157 9.06233 18.4077 9.271C18.199 9.479 17.942 9.583 17.6367 9.583C17.5394 9.583 17.449 9.57267 17.3657 9.552C17.2824 9.53133 17.206 9.49333 17.1367 9.438L14.0747 12.5C14.13 12.5693 14.168 12.6457 14.1887 12.729C14.2094 12.8123 14.2197 12.9027 14.2197 13C14.2197 13.3053 14.1157 13.5623 13.9077 13.771C13.699 13.979 13.442 14.083 13.1367 14.083C12.8314 14.083 12.5744 13.979 12.3657 13.771C12.1577 13.5623 12.0537 13.3053 12.0537 13C12.0537 12.9027 12.064 12.8123 12.0847 12.729C12.1054 12.6457 12.1434 12.5623 12.1987 12.479L9.15771 9.438C9.07438 9.49333 8.99104 9.53133 8.90771 9.552C8.82438 9.57267 8.73404 9.583 8.63671 9.583C8.52538 9.583 8.35871 9.54833 8.13671 9.479L3.61571 14C3.64371 14.0833 3.66804 14.1633 3.68871 14.24C3.70938 14.316 3.71971 14.4027 3.71971 14.5C3.71971 14.8053 3.61571 15.0623 3.40771 15.271C3.19904 15.479 2.94204 15.583 2.63671 15.583ZM3.63671 7.333L3.36571 6.771L2.80371 6.5L3.36571 6.229L3.63671 5.667L3.90771 6.229L4.46971 6.5L3.90771 6.771L3.63671 7.333ZM12.6367 7L12.1787 5.958L11.1367 5.5L12.1787 5.042L12.6367 4L13.0947 5.042L14.1367 5.5L13.0947 5.958L12.6367 7Z" fill="#1C1B1F"/>
</g>
</g>
</svg>
