<svg width="21" height="20" viewBox="0 0 21 20" fill="none" xmlns="http://www.w3.org/2000/svg">
<g id="pie_chart">
<mask id="mask0_504_4370" style="mask-type:alpha" maskUnits="userSpaceOnUse" x="0" y="0" width="21" height="20">
<rect id="Bounding box" x="0.136719" width="20" height="20" fill="#D9D9D9"/>
</mask>
<g mask="url(#mask0_504_4370)">
<path id="pie_chart_2" d="M10.4697 9.66701H16.6367C16.5534 7.98634 15.9251 6.55567 14.7517 5.37501C13.5777 4.19434 12.1504 3.56934 10.4697 3.50001V9.66701ZM9.80373 16.5V3.50001C8.09506 3.59734 6.64006 4.26734 5.43873 5.51001C4.23739 6.75334 3.63673 8.24301 3.63673 9.97901C3.63673 11.729 4.23739 13.229 5.43873 14.479C6.64006 15.729 8.09506 16.4027 9.80373 16.5ZM10.4697 16.5C12.1364 16.4027 13.5601 15.7637 14.7407 14.583C15.9214 13.4023 16.5534 11.9857 16.6367 10.333H10.4697V16.5ZM10.1577 17.167C9.15773 17.167 8.22373 16.9793 7.35573 16.604C6.48773 16.2293 5.72739 15.7153 5.07473 15.062C4.42139 14.4093 3.90739 13.649 3.53273 12.781C3.15739 11.913 2.96973 10.986 2.96973 10C2.96973 9.00001 3.15739 8.06601 3.53273 7.19801C3.90739 6.33001 4.42139 5.57301 5.07473 4.92701C5.72739 4.28101 6.48773 3.77067 7.35573 3.39601C8.22373 3.02067 9.15073 2.83301 10.1367 2.83301C11.1367 2.83301 12.0707 3.02067 12.9387 3.39601C13.8067 3.77067 14.5637 4.28101 15.2097 4.92701C15.8557 5.57301 16.3661 6.33334 16.7407 7.20801C17.1161 8.08334 17.3037 9.01401 17.3037 10C17.3037 10.986 17.1161 11.913 16.7407 12.781C16.3661 13.649 15.8557 14.4093 15.2097 15.062C14.5637 15.7153 13.8067 16.2293 12.9387 16.604C12.0707 16.9793 11.1437 17.167 10.1577 17.167Z" fill="white"/>
</g>
</g>
</svg>
