<svg width="24" height="24" viewBox="0 0 24 24" fill="none" xmlns="http://www.w3.org/2000/svg">
<mask id="mask0_504_4175" style="mask-type:alpha" maskUnits="userSpaceOnUse" x="0" y="0" width="24" height="24">
<rect width="24" height="24" fill="#D9D9D9"/>
</mask>
<g mask="url(#mask0_504_4175)">
<path d="M13.5 14.55C13.7 14.55 13.8793 14.4707 14.038 14.312C14.196 14.154 14.275 13.9667 14.275 13.75C14.275 13.55 14.196 13.3707 14.038 13.212C13.8793 13.054 13.7 12.975 13.5 12.975C13.3 12.975 13.121 13.054 12.963 13.212C12.8043 13.3707 12.725 13.55 12.725 13.75C12.725 13.9667 12.8043 14.154 12.963 14.312C13.121 14.4707 13.3 14.55 13.5 14.55ZM13.05 11.725H13.95C13.9667 11.3083 14.0293 10.9917 14.138 10.775C14.246 10.5583 14.5 10.2667 14.9 9.9C15.3333 9.5 15.6333 9.15 15.8 8.85C15.9667 8.55 16.05 8.20833 16.05 7.825C16.05 7.14167 15.8083 6.575 15.325 6.125C14.8417 5.675 14.2333 5.45 13.5 5.45C12.95 5.45 12.4583 5.6 12.025 5.9C11.5917 6.2 11.2583 6.61667 11.025 7.15L11.85 7.5C12.0333 7.1 12.2627 6.804 12.538 6.612C12.8127 6.42067 13.1333 6.325 13.5 6.325C13.9833 6.325 14.3793 6.46667 14.688 6.75C14.996 7.03333 15.15 7.4 15.15 7.85C15.15 8.11667 15.075 8.36667 14.925 8.6C14.775 8.83333 14.5167 9.11667 14.15 9.45C13.7167 9.81667 13.425 10.154 13.275 10.462C13.125 10.7707 13.05 11.1917 13.05 11.725ZM8.125 17C7.65833 17 7.271 16.846 6.963 16.538C6.65433 16.2293 6.5 15.8417 6.5 15.375V4.625C6.5 4.15833 6.65433 3.77067 6.963 3.462C7.271 3.154 7.65833 3 8.125 3H18.875C19.3417 3 19.7293 3.154 20.038 3.462C20.346 3.77067 20.5 4.15833 20.5 4.625V15.375C20.5 15.8417 20.346 16.2293 20.038 16.538C19.7293 16.846 19.3417 17 18.875 17H8.125ZM8.125 16H18.875C19.0417 16 19.1873 15.9373 19.312 15.812C19.4373 15.6873 19.5 15.5417 19.5 15.375V4.625C19.5 4.45833 19.4373 4.31267 19.312 4.188C19.1873 4.06267 19.0417 4 18.875 4H8.125C7.95833 4 7.81267 4.06267 7.688 4.188C7.56267 4.31267 7.5 4.45833 7.5 4.625V15.375C7.5 15.5417 7.56267 15.6873 7.688 15.812C7.81267 15.9373 7.95833 16 8.125 16ZM5.125 20C4.65833 20 4.27067 19.846 3.962 19.538C3.654 19.2293 3.5 18.8417 3.5 18.375V6.625H4.5V18.375C4.5 18.5417 4.56267 18.6873 4.688 18.812C4.81267 18.9373 4.95833 19 5.125 19H16.875V20H5.125Z" fill="white"/>
</g>
</svg>
