<svg width="25" height="24" viewBox="0 0 25 24" fill="none" xmlns="http://www.w3.org/2000/svg">
<g id="Group">
<g id="menu_book">
<mask id="mask0_843_3789" style="mask-type:alpha" maskUnits="userSpaceOnUse" x="0" y="0" width="25" height="24">
<rect id="Bounding box" x="0.827637" width="24" height="24" fill="#D9D9D9"/>
</mask>
<g mask="url(#mask0_843_3789)">
<path id="menu_book_2" d="M14.7026 9.59995V8.64995C15.2526 8.38328 15.832 8.18328 16.4406 8.04995C17.0486 7.91662 17.6776 7.84995 18.3276 7.84995C18.6943 7.84995 19.0483 7.87495 19.3896 7.92495C19.7316 7.97495 20.086 8.04162 20.4526 8.12495V9.02495C20.1026 8.90828 19.761 8.82895 19.4276 8.78695C19.0943 8.74562 18.7276 8.72495 18.3276 8.72495C17.6776 8.72495 17.0443 8.79995 16.4276 8.94995C15.811 9.09995 15.236 9.31662 14.7026 9.59995ZM14.7026 15.05V14.075C15.2193 13.8083 15.7943 13.6083 16.4276 13.475C17.061 13.3416 17.6943 13.275 18.3276 13.275C18.6943 13.275 19.0483 13.2956 19.3896 13.337C19.7316 13.379 20.086 13.45 20.4526 13.55V14.45C20.1026 14.3333 19.761 14.254 19.4276 14.212C19.0943 14.1706 18.7276 14.15 18.3276 14.15C17.6776 14.15 17.0443 14.229 16.4276 14.387C15.811 14.5456 15.236 14.7666 14.7026 15.05ZM14.7026 12.35V11.375C15.2526 11.1083 15.832 10.904 16.4406 10.762C17.0486 10.6206 17.6776 10.55 18.3276 10.55C18.6943 10.55 19.0483 10.575 19.3896 10.625C19.7316 10.675 20.086 10.7416 20.4526 10.825V11.75C20.1026 11.6333 19.761 11.554 19.4276 11.512C19.0943 11.4706 18.7276 11.45 18.3276 11.45C17.6776 11.45 17.0443 11.5293 16.4276 11.688C15.811 11.846 15.236 12.0666 14.7026 12.35ZM7.32764 16.05C8.1943 16.05 9.0403 16.15 9.86564 16.35C10.6903 16.55 11.511 16.875 12.3276 17.325V7.49995C11.611 6.98328 10.8153 6.59562 9.94064 6.33695C9.0653 6.07895 8.1943 5.94995 7.32764 5.94995C6.72764 5.94995 6.20264 5.98728 5.75264 6.06195C5.30264 6.13728 4.80264 6.27495 4.25264 6.47495C4.10264 6.52495 3.9943 6.59595 3.92764 6.68795C3.86097 6.77928 3.82764 6.88328 3.82764 6.99995V16.025C3.82764 16.2083 3.8903 16.3416 4.01564 16.425C4.1403 16.5083 4.28597 16.5166 4.45264 16.45C4.8193 16.3166 5.2403 16.2166 5.71564 16.15C6.1903 16.0833 6.72764 16.05 7.32764 16.05ZM13.3276 17.325C14.1443 16.875 14.9653 16.55 15.7906 16.35C16.6153 16.15 17.461 16.05 18.3276 16.05C18.9276 16.05 19.4653 16.0833 19.9406 16.15C20.4153 16.2166 20.836 16.3166 21.2026 16.45C21.3693 16.5166 21.515 16.5083 21.6396 16.425C21.765 16.3416 21.8276 16.2083 21.8276 16.025V6.99995C21.8276 6.88328 21.7943 6.78328 21.7276 6.69995C21.661 6.61662 21.5526 6.54162 21.4026 6.47495C20.8526 6.27495 20.3526 6.13728 19.9026 6.06195C19.4526 5.98728 18.9276 5.94995 18.3276 5.94995C17.461 5.94995 16.59 6.07895 15.7146 6.33695C14.84 6.59562 14.0443 6.98328 13.3276 7.49995V17.325ZM12.8276 18.775C12.011 18.2083 11.136 17.7793 10.2026 17.488C9.2693 17.196 8.31097 17.05 7.32764 17.05C6.81097 17.05 6.30264 17.0916 5.80264 17.175C5.30264 17.2583 4.81097 17.4 4.32764 17.6C3.96097 17.7333 3.6193 17.6833 3.30264 17.45C2.98597 17.2166 2.82764 16.9 2.82764 16.5V6.82495C2.82764 6.57495 2.8943 6.34562 3.02764 6.13695C3.16097 5.92895 3.3443 5.78328 3.57764 5.69995C4.16097 5.43328 4.7693 5.24162 5.40264 5.12495C6.03597 5.00828 6.67764 4.94995 7.32764 4.94995C8.31097 4.94995 9.2693 5.09162 10.2026 5.37495C11.136 5.65828 12.011 6.07495 12.8276 6.62495C13.6443 6.07495 14.5193 5.65828 15.4526 5.37495C16.386 5.09162 17.3443 4.94995 18.3276 4.94995C18.9776 4.94995 19.6193 5.00828 20.2526 5.12495C20.886 5.24162 21.4943 5.43328 22.0776 5.69995C22.311 5.78328 22.4943 5.92895 22.6276 6.13695C22.761 6.34562 22.8276 6.57495 22.8276 6.82495V16.5C22.8276 16.9 22.657 17.2126 22.3156 17.438C21.9736 17.6626 21.6026 17.7 21.2026 17.55C20.7526 17.3666 20.286 17.2376 19.8026 17.163C19.3193 17.0876 18.8276 17.05 18.3276 17.05C17.3443 17.05 16.386 17.196 15.4526 17.488C14.5193 17.7793 13.6443 18.2083 12.8276 18.775Z" fill="#FFCD25"/>
</g>
</g>
</g>
</svg>
