<svg width="25" height="22" viewBox="0 0 25 22" fill="none" xmlns="http://www.w3.org/2000/svg">
<g id="Group">
<g id="edit_document">
<mask id="mask0_452_5300" style="mask-type:alpha" maskUnits="userSpaceOnUse" x="0" y="0" width="25" height="22">
<rect id="Bounding box" y="0.806396" width="24.0667" height="20.3479" fill="#D9D9D9"/>
</mask>
<g mask="url(#mask0_452_5300)">
<path id="edit_document_2" d="M6.64319 18.611C6.17522 18.611 5.78681 18.4805 5.47796 18.2193C5.16843 17.9576 5.01367 17.629 5.01367 17.2333V4.72782C5.01367 4.33217 5.16843 4.00349 5.47796 3.7418C5.78681 3.48066 6.17522 3.3501 6.64319 3.3501H14.5401L19.0526 7.16533V10.2175H18.0498V7.58925H14.0387V4.19793H6.64319C6.47606 4.19793 6.32999 4.25106 6.20497 4.35732C6.07929 4.46302 6.01645 4.58652 6.01645 4.72782V17.2333C6.01645 17.3746 6.07929 17.4981 6.20497 17.6038C6.32999 17.7101 6.47606 17.7632 6.64319 17.7632H11.3061V18.611H6.64319ZM17.423 13.1637L18.0498 13.6724L14.1891 16.9366V17.8268H15.242L19.1027 14.5626L19.7294 15.0925L15.618 18.5686H13.3117V16.6398L17.423 13.1637ZM19.7294 15.0925L17.423 13.1637L18.6013 12.1675C18.7517 12.0404 18.9399 11.9768 19.1659 11.9768C19.3912 11.9768 19.579 12.0404 19.7294 12.1675L20.9077 13.1637C21.0581 13.2909 21.1333 13.4497 21.1333 13.6402C21.1333 13.8313 21.0581 13.9904 20.9077 14.1175L19.7294 15.0925Z" fill="#FFCD25"/>
</g>
</g>
</g>
</svg>
