<svg width="25" height="25" viewBox="0 0 25 25" fill="none" xmlns="http://www.w3.org/2000/svg">
<g id="Group">
<g id="description">
<mask id="mask0_452_5304" style="mask-type:alpha" maskUnits="userSpaceOnUse" x="0" y="0" width="25" height="25">
<rect id="Bounding box" x="0.217773" y="0.806396" width="24.0667" height="24" fill="#D9D9D9"/>
</mask>
<g mask="url(#mask0_452_5304)">
<path id="description_2" d="M8.74166 18.3064H15.7611V17.3064H8.74166V18.3064ZM8.74166 14.3064H15.7611V13.3064H8.74166V14.3064ZM6.86145 21.8064C6.39348 21.8064 6.00508 21.6524 5.69622 21.3444C5.3867 21.0357 5.23193 20.6481 5.23193 20.1814V5.4314C5.23193 4.96473 5.3867 4.57706 5.69622 4.2684C6.00508 3.9604 6.39348 3.8064 6.86145 3.8064H14.7583L19.2708 8.3064V20.1814C19.2708 20.6481 19.1164 21.0357 18.8075 21.3444C18.498 21.6524 18.1093 21.8064 17.6413 21.8064H6.86145ZM14.2569 8.8064V4.8064H6.86145C6.69432 4.8064 6.54825 4.86906 6.42323 4.9944C6.29755 5.11906 6.23471 5.26473 6.23471 5.4314V20.1814C6.23471 20.3481 6.29755 20.4937 6.42323 20.6184C6.54825 20.7437 6.69432 20.8064 6.86145 20.8064H17.6413C17.8084 20.8064 17.9545 20.7437 18.0795 20.6184C18.2052 20.4937 18.268 20.3481 18.268 20.1814V8.8064H14.2569Z" fill="#FFCD25"/>
</g>
</g>
</g>
</svg>
