<svg width="25" height="24" viewBox="0 0 25 24" fill="none" xmlns="http://www.w3.org/2000/svg">
<g id="share">
<mask id="mask0_843_3808" style="mask-type:alpha" maskUnits="userSpaceOnUse" x="0" y="0" width="25" height="24">
<rect id="Bounding box" x="0.827637" width="24" height="24" fill="#D9D9D9"/>
</mask>
<g mask="url(#mask0_843_3808)">
<path id="share_2" d="M18.8276 21.5C18.1276 21.5 17.536 21.2583 17.0526 20.775C16.5693 20.2917 16.3276 19.7 16.3276 19C16.3276 18.8667 16.3403 18.729 16.3656 18.587C16.3903 18.4457 16.4276 18.3083 16.4776 18.175L8.72764 13.625C8.47764 13.8917 8.1903 14.104 7.86564 14.262C7.5403 14.4207 7.1943 14.5 6.82764 14.5C6.12764 14.5 5.53597 14.2583 5.05264 13.775C4.5693 13.2917 4.32764 12.7 4.32764 12C4.32764 11.3 4.5693 10.7083 5.05264 10.225C5.53597 9.74167 6.12764 9.5 6.82764 9.5C7.1943 9.5 7.5403 9.57933 7.86564 9.738C8.1903 9.896 8.47764 10.1083 8.72764 10.375L16.4776 5.825C16.4276 5.69167 16.3903 5.554 16.3656 5.412C16.3403 5.27067 16.3276 5.13333 16.3276 5C16.3276 4.3 16.5693 3.70833 17.0526 3.225C17.536 2.74167 18.1276 2.5 18.8276 2.5C19.5276 2.5 20.1193 2.74167 20.6026 3.225C21.086 3.70833 21.3276 4.3 21.3276 5C21.3276 5.7 21.086 6.29167 20.6026 6.775C20.1193 7.25833 19.5276 7.5 18.8276 7.5C18.461 7.5 18.115 7.42067 17.7896 7.262C17.465 7.104 17.1776 6.89167 16.9276 6.625L9.17764 11.175C9.22764 11.3083 9.2653 11.4457 9.29064 11.587C9.3153 11.729 9.32764 11.8667 9.32764 12C9.32764 12.1333 9.3153 12.2707 9.29064 12.412C9.2653 12.554 9.22764 12.6917 9.17764 12.825L16.9276 17.375C17.1776 17.1083 17.465 16.896 17.7896 16.738C18.115 16.5793 18.461 16.5 18.8276 16.5C19.5276 16.5 20.1193 16.7417 20.6026 17.225C21.086 17.7083 21.3276 18.3 21.3276 19C21.3276 19.7 21.086 20.2917 20.6026 20.775C20.1193 21.2583 19.5276 21.5 18.8276 21.5ZM18.8276 6.5C19.2443 6.5 19.5983 6.354 19.8896 6.062C20.1816 5.77067 20.3276 5.41667 20.3276 5C20.3276 4.58333 20.1816 4.22933 19.8896 3.938C19.5983 3.646 19.2443 3.5 18.8276 3.5C18.411 3.5 18.057 3.646 17.7656 3.938C17.4736 4.22933 17.3276 4.58333 17.3276 5C17.3276 5.41667 17.4736 5.77067 17.7656 6.062C18.057 6.354 18.411 6.5 18.8276 6.5ZM6.82764 13.5C7.2443 13.5 7.5983 13.354 7.88964 13.062C8.18164 12.7707 8.32764 12.4167 8.32764 12C8.32764 11.5833 8.18164 11.2293 7.88964 10.938C7.5983 10.646 7.2443 10.5 6.82764 10.5C6.41097 10.5 6.05697 10.646 5.76564 10.938C5.47364 11.2293 5.32764 11.5833 5.32764 12C5.32764 12.4167 5.47364 12.7707 5.76564 13.062C6.05697 13.354 6.41097 13.5 6.82764 13.5ZM18.8276 20.5C19.2443 20.5 19.5983 20.354 19.8896 20.062C20.1816 19.7707 20.3276 19.4167 20.3276 19C20.3276 18.5833 20.1816 18.2293 19.8896 17.938C19.5983 17.646 19.2443 17.5 18.8276 17.5C18.411 17.5 18.057 17.646 17.7656 17.938C17.4736 18.2293 17.3276 18.5833 17.3276 19C17.3276 19.4167 17.4736 19.7707 17.7656 20.062C18.057 20.354 18.411 20.5 18.8276 20.5Z" fill="#FFCD25"/>
</g>
</g>
</svg>
