<svg width="21" height="20" viewBox="0 0 21 20" fill="none" xmlns="http://www.w3.org/2000/svg">
<g id="sports_score">
<mask id="mask0_504_4400" style="mask-type:alpha" maskUnits="userSpaceOnUse" x="0" y="0" width="21" height="20">
<rect id="Bounding box" x="0.136719" width="20" height="20" fill="#D9D9D9"/>
</mask>
<g mask="url(#mask0_504_4400)">
<path id="sports_score_2" d="M7.96971 5.56199H9.34471V4.18799H7.96971V5.56199ZM10.7197 5.56199V4.18799H12.0947V5.56199H10.7197ZM7.96971 11.042V9.68799H9.34471V11.042H7.96971ZM13.4697 8.31199V6.93799H14.8447V8.31199H13.4697ZM13.4697 11.042V9.68799H14.8447V11.042H13.4697ZM10.7197 11.042V9.68799H12.0947V11.042H10.7197ZM13.4697 5.56199V4.18799H14.8447V5.56199H13.4697ZM9.34471 6.93799V5.56199H10.7197V6.93799H9.34471ZM5.92871 15.542V4.18799H6.59471V5.56199H7.96971V6.93799H6.59471V8.31199H7.96971V9.68799H6.59471V15.542H5.92871ZM12.0947 9.68799V8.31199H13.4697V9.68799H12.0947ZM9.34471 9.68799V8.31199H10.7197V9.68799H9.34471ZM7.96971 8.31199V6.93799H9.34471V8.31199H7.96971ZM10.7197 8.31199V6.93799H12.0947V8.31199H10.7197ZM12.0947 6.93799V5.56199H13.4697V6.93799H12.0947Z" fill="white"/>
</g>
</g>
</svg>
