<svg width="25" height="24" viewBox="0 0 25 24" fill="none" xmlns="http://www.w3.org/2000/svg">
<g id="language">
<mask id="mask0_844_3862" style="mask-type:alpha" maskUnits="userSpaceOnUse" x="0" y="0" width="25" height="24">
<rect id="Bounding box" x="0.827637" width="24" height="24" fill="#D9D9D9"/>
</mask>
<g mask="url(#mask0_844_3862)">
<path id="language_2" d="M12.8276 21C11.5943 21 10.4276 20.7627 9.32764 20.288C8.22764 19.8127 7.27364 19.1707 6.46564 18.362C5.65697 17.554 5.01497 16.6 4.53964 15.5C4.06497 14.4 3.82764 13.2333 3.82764 12C3.82764 10.75 4.06497 9.579 4.53964 8.487C5.01497 7.39567 5.65697 6.44567 6.46564 5.637C7.27364 4.829 8.22764 4.18733 9.32764 3.712C10.4276 3.23733 11.5943 3 12.8276 3C14.0776 3 15.2486 3.23733 16.3406 3.712C17.432 4.18733 18.382 4.829 19.1906 5.637C19.9986 6.44567 20.6403 7.39567 21.1156 8.487C21.5903 9.579 21.8276 10.75 21.8276 12C21.8276 13.2333 21.5903 14.4 21.1156 15.5C20.6403 16.6 19.9986 17.554 19.1906 18.362C18.382 19.1707 17.432 19.8127 16.3406 20.288C15.2486 20.7627 14.0776 21 12.8276 21ZM12.8276 20C13.411 19.25 13.8943 18.5127 14.2776 17.788C14.661 17.0627 14.9693 16.25 15.2026 15.35H10.4526C10.7193 16.3 11.036 17.1373 11.4026 17.862C11.7693 18.5873 12.2443 19.3 12.8276 20ZM11.5526 19.85C11.086 19.3 10.661 18.6207 10.2776 17.812C9.8943 17.004 9.61097 16.1833 9.42764 15.35H5.57764C6.16097 16.5833 6.97764 17.6 8.02764 18.4C9.07764 19.2 10.2526 19.6833 11.5526 19.85ZM14.1026 19.85C15.4026 19.6833 16.5776 19.2 17.6276 18.4C18.6776 17.6 19.4943 16.5833 20.0776 15.35H16.2276C15.9776 16.2 15.661 17.029 15.2776 17.837C14.8943 18.6457 14.5026 19.3167 14.1026 19.85ZM5.17764 14.35H9.20264C9.13597 13.9333 9.08597 13.5333 9.05264 13.15C9.0193 12.7667 9.00264 12.3833 9.00264 12C9.00264 11.6167 9.0193 11.2333 9.05264 10.85C9.08597 10.4667 9.13597 10.0667 9.20264 9.65H5.17764C5.06097 10 4.97364 10.379 4.91564 10.787C4.85697 11.1957 4.82764 11.6 4.82764 12C4.82764 12.4 4.85697 12.804 4.91564 13.212C4.97364 13.6207 5.06097 14 5.17764 14.35ZM10.2026 14.35H15.4526C15.5193 13.9333 15.5693 13.5373 15.6026 13.162C15.636 12.7873 15.6526 12.4 15.6526 12C15.6526 11.6 15.636 11.2123 15.6026 10.837C15.5693 10.4623 15.5193 10.0667 15.4526 9.65H10.2026C10.136 10.0667 10.086 10.4623 10.0526 10.837C10.0193 11.2123 10.0026 11.6 10.0026 12C10.0026 12.4 10.0193 12.7873 10.0526 13.162C10.086 13.5373 10.136 13.9333 10.2026 14.35ZM16.4526 14.35H20.4776C20.5943 14 20.682 13.6207 20.7406 13.212C20.7986 12.804 20.8276 12.4 20.8276 12C20.8276 11.6 20.7986 11.1957 20.7406 10.787C20.682 10.379 20.5943 10 20.4776 9.65H16.4526C16.5193 10.0667 16.5693 10.4667 16.6026 10.85C16.636 11.2333 16.6526 11.6167 16.6526 12C16.6526 12.3833 16.636 12.7667 16.6026 13.15C16.5693 13.5333 16.5193 13.9333 16.4526 14.35ZM16.2276 8.65H20.0776C19.4943 7.38333 18.69 6.36667 17.6646 5.6C16.64 4.83333 15.4526 4.34167 14.1026 4.125C14.5693 4.74167 14.9903 5.446 15.3656 6.238C15.7403 7.02933 16.0276 7.83333 16.2276 8.65ZM10.4526 8.65H15.2026C14.936 7.71667 14.611 6.87067 14.2276 6.112C13.8443 5.354 13.3776 4.65 12.8276 4C12.2776 4.65 11.811 5.354 11.4276 6.112C11.0443 6.87067 10.7193 7.71667 10.4526 8.65ZM5.57764 8.65H9.42764C9.62764 7.83333 9.9153 7.02933 10.2906 6.238C10.6653 5.446 11.086 4.74167 11.5526 4.125C10.186 4.34167 8.9943 4.83733 7.97764 5.612C6.96097 6.38733 6.16097 7.4 5.57764 8.65Z" fill="#FFCD25"/>
</g>
</g>
</svg>
